<?xml version="1.0" standalone="no"?>
<!DOCTYPE svg PUBLIC "-//W3C//DTD SVG 1.1//EN" "http://www.w3.org/Graphics/SVG/1.1/DTD/svg11.dtd" >
<svg xmlns="http://www.w3.org/2000/svg" xmlns:xlink="http://www.w3.org/1999/xlink" version="1.1" viewBox="-10 0 1010 1000">
   <path fill="currentColor"
d="M433.67 707.189q-20.4365 -5.38477 -42.7646 -23.7168q-9.84863 -8.08301 -18.1689 -13.584q-16.7559 -11.082 -23.6689 -21.8496q-10.1602 -15.8291 -15.2959 -30.7861q-6.72754 -19.5928 -13.7568 -63.499q-1.43457 -8.9668 -6.74805 -30.1465
q-5.3125 -21.1689 -5.3125 -37.2461v-16.0801l7.36816 -14.708q7.37305 -14.7168 16.2744 -27.5352q8.84082 -12.7305 20.1523 -29.2715q15.8809 -23.2217 30.4922 -32.2822q16.8438 -10.4443 28.5156 -9.24902q12.3496 1.2627 17.7881 9.87988
q5.97168 9.46094 1.62793 8.87793q-1.62207 -0.217773 -4.49121 -2.47461q-6.90625 -5.43262 -13.2051 1.31055q-6.46875 6.92578 -6.4834 24.9268q-0.0146484 18 6.43848 32.0986q5.73926 12.54 14.6328 12.7363q9.97461 0.219727 18.1719 -12.2256
q5.70801 -8.66309 7.4668 -9.70215q1.75781 -1.03711 2.49512 -8.40527q0.737305 -7.36914 -3.6582 -12.6289q-8.62891 -10.3301 -7.25488 -35.8066q0.933594 -17.3193 4.14062 -17.666q8.16699 -0.881836 21.9824 20.377q6.68945 10.2988 9.35156 9.28613
q2.65918 -1.01074 15.2539 -1.06445l12.5947 -0.0517578l4.08203 -6.45215q14.1416 -22.3428 24.8838 -22.375q6.76953 -0.0234375 8.89648 20.5127q2.1084 20.3584 -2.31543 30.0674q-1.63281 3.58594 1.55664 6.33105q7.62207 6.55664 7.62207 11.9756
q0 3.63477 5.88184 12.7227q5.88184 9.08691 10.0195 11.8457q9.67676 6.45215 17.8682 1.08301q7.45508 -4.88281 11.8828 -26.7412q7.90137 -38.9863 -9.34668 -44.3613q-4.03125 -1.25586 -8.43457 2.20703q-3.26074 2.56641 -4.80176 2.56641
q-4.72363 0 2.77344 -10.5244q5.72559 -8.04297 20.9805 -8.03809q10.2598 0.00390625 18.8701 5.39062q19.6064 12.2676 33.7842 33.0547q8.66602 12.7109 19.1543 27.582q22.5781 32.0068 26.0469 48.3154q3.46973 16.3096 -4.71484 51.9746
q-6.28027 27.3711 -8.45898 41.46q-9.625 62.2451 -15.9531 78.8926q-5.7959 15.2578 -21.5439 26.8975q-13.1387 9.7168 -23.626 17.9141q-27.5107 21.5107 -58.8369 20.3457q-13.4668 -0.500977 -18.7607 -3.26758q-12.0273 -6.29199 -12.0273 -12.5244
q0 -5.90332 5.34766 -1.06543q2.61914 2.37207 9.21973 2.33301q17.2559 -0.102539 32.8125 -20.8691q18.6602 -24.916 34.0684 -70.1719q3.48926 -10.2549 4.68262 -12.5078q1.19238 -2.24512 -1.12207 -2.24512q-5.70605 0 -18.3936 14.7715
q-4.40332 5.12012 -5.65527 6.01367q-1.26367 0.901367 2.08594 4.49023q9.16309 9.82031 3.56543 22.1582q-2.60254 5.73828 -3.70508 3.95801q-1.10156 -1.78223 -5.22461 1.68848q-4.25684 3.58105 -5.83301 2.96094q-1.5752 -0.620117 0.197266 -5.17871
l-3.04785 -0.321289q-3.96973 2.05469 -6.52734 2.05469q-2.55859 0 0.0439453 -5.88184q2.60156 -5.88281 0.900391 -11.6455q-2.93164 -9.93164 -11.8311 -3.80371q-26.9707 18.5771 -40.0576 47.2832q-4.23145 9.28516 -5.41797 9.67969
q-1.18848 0.395508 -4.12988 -11.5244q-8.80957 -35.7012 -29.1592 -45.3584q-4.67285 -2.21484 -10.8057 -3.83203q-6.14551 -1.62109 -8.74316 2.02441q-7.08008 9.94531 -5.69629 22.0967q0.839844 7.37598 -1.20996 7.37598q-2.05176 0 -4.61426 -2.56641
l-2.56641 -2.56445v2.56445q0 2.28613 -2.30859 2.54785t-4.04297 -1.82812q-1.53027 -1.84668 -4.19531 -2.24512q-2.66016 -0.397461 -4.07422 -2.85156q-1.4082 -2.44336 -3.65918 -4.80957q-2.24512 -2.35645 -2.24512 -5.13184q0 -8.2334 12.7012 -18.3916
q6.41309 -5.13086 6.47754 -6.66797q0.0576172 -1.54492 -8.24805 -10.2236q-8.3125 -8.68945 -9.69141 -7.31055q-1.2168 1.2168 -1.43164 8.66504q-0.21582 7.44824 0.788086 13.6133l0.94043 5.77246l-12.6338 -13.0029q-18.582 -19.1221 -19.0439 -13.4375
q-0.12207 1.50586 1.11133 4.79199q1.80371 4.80664 5.3623 14.5918q12.8311 35.3184 29.0566 59.1973q7.53418 11.0879 17.0557 17.5205q9.51855 6.42969 14.1455 7.95801q10.2959 3.39746 14.751 -1.96777q1.71289 -2.06543 3.4082 -1.7998
q1.69434 0.264648 1.69434 2.59766q0 7.3916 -10.6914 13.0029q-16.0713 8.4375 -43.8311 1.12402z" />
</svg>
