<?xml version="1.0" standalone="no"?>
<!DOCTYPE svg PUBLIC "-//W3C//DTD SVG 1.1//EN" "http://www.w3.org/Graphics/SVG/1.1/DTD/svg11.dtd" >
<svg xmlns="http://www.w3.org/2000/svg" xmlns:xlink="http://www.w3.org/1999/xlink" version="1.1" viewBox="-10 0 1010 1000">
   <path fill="currentColor"
d="M497.311 667.203q-11.7568 -24.6084 -43.5469 -40.7178q-8.80176 -4.45898 -8.84863 -5.70215q-0.0478516 -1.24316 -4.79004 -6.96289l-4.74707 -5.72266l-3.84766 7.38281q-3.84863 7.38281 -2.85742 14.6084q0.990234 7.22656 -2.24121 7.22656
q-3.23438 0 -5.77051 -2.54004q-4.47363 -4.47168 -4.47363 0.793945q0 6.72461 -5.40527 -0.0517578q-1.34863 -1.69238 -2.33398 -3.95801l-2.35156 -2.92383q-0.0625 2.32715 -2.60449 0.214844q-4.46484 -3.70312 -1.43848 -11.4482q3.02637 -7.74219 11.1348 -13.3623
q6.38281 -4.42383 6.38281 -6.62793q0 -5.73926 -27.9004 -36.3652q-27.9023 -30.627 -43.1895 -41.6689q-59.7832 -43.1797 -107.174 -32.0283q-9.84766 2.31543 -11.4561 0.396484q-1.6084 -1.92578 -10.8154 -20.2891q-18.5918 -37.0889 -41.1992 -62.0303
q-33.3389 -36.7832 -70.9209 -46.5723q-9.45605 -2.46387 -9.85254 -2.91113q-0.399414 -0.449219 -3.98535 -13.625q-15.874 -58.2949 -63.085 -73.8438q-11.2793 -3.71484 -12.3311 -6.45508q-1.65723 -4.31836 12.957 -16.0205q14.6113 -11.7021 30.8467 -19.0615
q28.4766 -12.9062 45.8174 -13.3535q45.1211 -1.16504 82.2383 6.45312q25.9395 5.32324 90.4092 43.2236q5.08398 2.98535 8.88574 4.1377q2.68652 0.8125 3.52148 -0.469727q1.55859 -2.3877 -3.2666 -8.49414l-3.55566 -4.49805l5.50488 -0.550781
q11.0439 -1.10059 15.0635 17.1836q2.48047 11.292 13.6953 25.9316q40.0186 52.2451 69.7285 75.8926q10.6016 8.43848 11.4463 9.48926q0.845703 1.05176 14.3867 10.3584q7.44629 5.12012 16.6787 10.2949q9.2334 5.17285 15.8164 7.99121
q6.58301 2.81641 6.98242 1.66211q0.548828 -1.58203 -3.85645 -7.3584q-9.36621 -12.2793 -6.67578 -39.165q1.52148 -15.2188 4.67188 -15.8184q7.64648 -1.4541 22.9209 21.8223q6.17188 9.40527 12.0547 7.86133q5.88184 -1.54492 16.3643 -0.72168
q10.4814 0.822266 13.0176 -4.47656q2.86328 -5.98242 11.2217 -13.7139q8.35938 -7.73242 12.957 -8.65234q5.82031 -1.16504 8.20508 3.54004q2.38379 4.7041 3.44727 19.4512q1.15723 16.0811 -1.64746 22.7939q-2.80566 6.71191 1.06836 9.69531
q5.67188 4.36426 15.3691 -0.566406q53.6113 -27.2598 109.528 -99.3799q20.5264 -26.4766 23.625 -40.0225q2.98047 -13.0244 12.3428 -15.3115q3.99902 -0.976562 4.56055 0.862305q0.5625 1.83887 -2.49707 5.88574q-2.48633 3.28613 -2.48633 6.29395
q0 4.93164 10.1572 -2.02832q14.0254 -9.60742 57.5488 -31.2891q25.9971 -12.9492 46.5459 -15.0625q8.31641 -0.855469 23.6963 -2.5752q4.50586 -0.504883 15.9365 -1.78516q11.4316 -1.28027 15.3789 -1.72168q23.8799 -2.67383 54.0918 8.46484
q27.6914 10.2109 42.6631 23.7334q8.11914 7.33301 7.42383 10.3105q-0.694336 2.97852 -11.5508 7.37695q-47.249 19.1523 -63.8105 84.9385q-1.7627 7.00195 -14.0225 11.5244q-63.3477 23.377 -108.949 111.803q-5.76855 11.1865 -7.9248 13.959
q-2.1582 2.77344 -4.7959 2.39746q-4.01172 -0.570312 -23.457 -0.84668q-26.3594 -0.373047 -53.3193 12.5059q-55.7158 26.6191 -100.583 90.8887l-7.38281 10.5742l7.62988 6.7168q13.1904 11.6094 10.7637 21.2822q-1.09473 4.3623 -4.46582 3.29102l-2.99316 0.327148
q0.376953 1.39551 -0.918945 5.2041q-1.11816 3.29199 -3.40039 3.68164q-2.28223 0.391602 -3.39746 -2.51562q-1.01367 -2.64648 -4.78906 0q-4.78711 3.35254 -6.38086 2.47852q-1.5918 -0.875977 -0.712891 -6.37695q1.04688 -6.53906 -2.6084 -14.8086
l-3.65723 -8.2666l-6.04688 7.28125q-6.05078 7.28223 -19.0059 13.7949q-25.9805 13.0625 -36.7754 34.9092q-6.20996 12.5615 -6.83398 12.5615q-0.626953 0 -5.75293 -10.7344z" />
</svg>
