<?xml version="1.0" standalone="no"?>
<!DOCTYPE svg PUBLIC "-//W3C//DTD SVG 1.1//EN" "http://www.w3.org/Graphics/SVG/1.1/DTD/svg11.dtd" >
<svg xmlns="http://www.w3.org/2000/svg" xmlns:xlink="http://www.w3.org/1999/xlink" version="1.1" viewBox="-10 0 810 1000">
   <path fill="currentColor"
d="M400 81.9268q86.2627 0 159.53 42.6279t115.857 115.911t42.5898 159.535q0 86.249 -42.5898 159.532q-42.5898 73.2822 -115.857 115.911t-159.53 42.6289t-159.53 -42.6289t-115.857 -115.911q-42.5898 -73.2832 -42.5898 -159.532q0 -86.252 42.5898 -159.535
t115.857 -115.911t159.53 -42.6279zM400 165.411q-97.0068 0 -165.846 68.7881q-68.8389 68.7891 -68.8389 165.802q0 97.0088 68.8389 165.798q68.8398 68.79 165.846 68.79t165.846 -68.79q68.8389 -68.7891 68.8389 -165.798q0 -97.0127 -68.8389 -165.802
q-68.8389 -68.7881 -165.846 -68.7881z" />
</svg>
