<?xml version="1.0" standalone="no"?>
<!DOCTYPE svg PUBLIC "-//W3C//DTD SVG 1.1//EN" "http://www.w3.org/Graphics/SVG/1.1/DTD/svg11.dtd" >
<svg xmlns="http://www.w3.org/2000/svg" xmlns:xlink="http://www.w3.org/1999/xlink" version="1.1" viewBox="-10 0 810 1000">
   <path fill="currentColor"
d="M399.904 58.9434q90.3213 0 152.912 57.6787q62.5898 57.6787 62.5898 145.569q0 27.7451 -7.69336 55.4658q67.2432 17.543 113.686 78.374q46.4424 60.8301 46.4424 129.527q0 13.6797 -1.61719 26.4033q-9.54883 77.7793 -70.4307 133.437
q-60.8818 55.6582 -143.454 55.6582q-89.6328 0 -152.436 -63.8223q-26.2305 26.7266 -71.4844 45.2744t-80.9512 18.5479q-53.6279 0 -100.769 -25.0723q-49.0039 -26.0781 -81.7715 -74.8418q-32.7686 -48.7627 -32.7686 -115.584q0 -77.2793 45.1182 -133.503
t114.915 -74.3984q-7.59766 -27.2461 -7.59766 -55.4658q0 -93.4912 61.5479 -148.369q61.5479 -54.8789 153.762 -54.8789zM399.904 118.684q-59.335 0 -101.375 42.0791q-42.04 42.0781 -42.04 101.429q0 34.4951 17.665 67.6211l27.3535 50.7188l-58.125 1.83789
q-58.3809 1.80762 -98.8545 43.5127q-40.4746 41.7061 -40.4746 99.71q0 47.957 28.7773 86.2373q43.1406 57.3643 114.636 57.3643q79.8066 0 121.759 -68.7607l30.6768 -49.8633l30.582 49.8633q19.876 32.3213 52.1963 50.5469t69.6572 18.2139
q59.6045 0 101.604 -41.8662q41.999 -41.8672 41.999 -101.735q0 -58.6543 -40.46 -100.033t-99.0586 -43.1895l-58.3154 -1.83789l27.6387 -50.8125q17.7607 -33.2803 17.7607 -67.5273q0 -27.8115 -10.4463 -53.6611q-14.4912 -35.8027 -50.8135 -62.8242
q-36.3223 -27.0225 -82.3418 -27.0225z" />
</svg>
