<?xml version="1.0" standalone="no"?>
<!DOCTYPE svg PUBLIC "-//W3C//DTD SVG 1.1//EN" "http://www.w3.org/Graphics/SVG/1.1/DTD/svg11.dtd" >
<svg xmlns="http://www.w3.org/2000/svg" xmlns:xlink="http://www.w3.org/1999/xlink" version="1.1" viewBox="-10 0 726 1000">
   <path fill="currentColor"
d="M289.624 19.1777q44.376 -6.17773 87.6191 12.2354q43.7568 18.5869 76.8613 53.3184q24.8955 27.2686 35.4268 65.4023q10.4688 37.8662 2.27344 74.5146q-28.7314 76.8545 -92.1611 126.076q-1.64355 1.27539 -3.42676 3.26172q-2.2168 2.01367 -4.4873 4.24902
q-1.72949 1.76465 -3.57617 4.33203q-2.15332 2.43262 -1.35938 4.55957q0.206055 3.87305 2.83008 3.88184q14.376 -0.00878906 36.4189 1.25586q25.957 1.73535 41.957 5.73535q26 7 36.5 9q26.5 5 39.0898 10.6191q12.4102 6.38086 26.3916 1.30566
q14.0186 -4.9248 21.0107 -16.4629q16.0078 -14.4619 39.5322 -11.9912q21.4756 2.5293 35.083 21.7051q35.3926 50.8242 4.35449 134.05q-23.9619 65.7744 -60.7627 115.647q-39.1992 53.127 -92.1357 90.1016q-44.0635 25.0254 -99.209 36.9951
q-95.8545 13.0303 -164.494 3.62109q-81.3604 -11.5908 -135.765 -50.2334q-65.5957 -38.3574 -84.9004 -106.509q-9.69531 -33.8486 -6.51855 -68.9824q2.82324 -28.8662 23.4502 -64.9199q5.37305 -9.94629 11.5205 -18.1445q5.85254 -8.80176 16.4053 -19.5693
q10.4473 -11.2324 13.6533 -14.5518q3.79395 -3.68066 18.4014 -17.8525q15.3926 -13.8281 15.5117 -14.7109q12.8809 -12.1172 37.3125 -46.6982q-7.43164 -7.41895 -29.9951 -26.4385q-22.4365 -18.9805 -36.2363 -34.4102q-13.2002 -15.5703 -22.3184 -32.8926
q-5.88184 -12.6777 2.04199 -23.3447q8.07617 -11.333 21.9434 -13.3447q15.1328 -2.98828 26.1084 -6.7959q11.0244 -3.19238 21.7656 -12.6182q9.25879 -7.57422 14.1572 -21.9717q2.10156 -6.60254 5.86719 -22.5723q4.23438 -16.0303 6.47363 -24.5879
q2.76074 -8.44238 8.22656 -20.9893q5.53418 -12.4531 13.0088 -21.0225q47.5254 -63.4307 96.1494 -70.2529z" />
</svg>
