<?xml version="1.0" standalone="no"?>
<!DOCTYPE svg PUBLIC "-//W3C//DTD SVG 1.1//EN" "http://www.w3.org/Graphics/SVG/1.1/DTD/svg11.dtd" >
<svg xmlns="http://www.w3.org/2000/svg" xmlns:xlink="http://www.w3.org/1999/xlink" version="1.1" viewBox="-10 0 608 1000">
   <path fill="currentColor"
d="M557.611 372.008q0 1.27246 -1.27246 1.27246q-33.1543 0 -33.1543 33.1162q0 1.27148 -1.27246 1.27148t-1.27246 -1.27148q0 -33.1162 -33.1533 -33.1162q-1.27246 0 -1.27246 -1.27246t1.27246 -1.27246q33.1533 0 33.1533 -33.1533q0 -1.27246 1.27246 -1.27246
t1.27246 1.27246q0 33.1533 33.1543 33.1533q1.27246 0 1.27246 1.27246zM462.812 207.739q0 1.27246 -1.27148 1.27246q-33.1553 0 -33.1553 33.1533q0 1.27246 -1.27246 1.27246q-1.27148 0 -1.27148 -1.27246q0 -33.1533 -33.1162 -33.1533q-1.27246 0 -1.27246 -1.27246
t1.27246 -1.27246q33.1162 0 33.1162 -33.1162q0 -1.27148 1.27148 -1.27148q1.27246 0 1.27246 1.27148q0 33.1162 33.1553 33.1162q1.27148 0 1.27148 1.27246zM427.538 136.495q0 1.27246 -1.27148 1.27246q-33.1562 0 -33.1562 33.1553q0 1.27246 -1.27246 1.27246
q-1.27051 0 -1.27051 -1.27246q0 -33.1553 -33.1562 -33.1553q-1.27246 0 -1.27246 -1.27246t1.27246 -1.27246q33.1562 0 33.1562 -33.1162q0 -1.27051 1.27051 -1.27051q1.27246 0 1.27246 1.27051q0 33.1162 33.1562 33.1162q1.27148 0 1.27148 1.27246zM462.505 512.259
q52.7891 43.0498 77.9678 79.5361q25.1777 36.4844 13.9395 55.9746q-12.585 19.4014 -56.2031 15.8555q-43.6182 -3.54883 -107.41 -27.8066q-34.3604 23.2471 -75.4082 27.2939v328.654h-32.8076v-328.654q-62.4199 -6.21582 -104.959 -52.9287
q-42.54 -46.7148 -42.54 -110.184q0 -5.57129 0.424805 -11.6426q-52.8057 -43.0635 -77.9883 -79.5459q-25.1836 -36.4805 -13.9199 -55.9629q12.5459 -19.3799 55.9824 -15.8994q43.4365 3.48242 107.016 27.6182q34.4795 -23.5703 75.9844 -27.6797v-328.654h32.8076
v328.654q62.3975 6.18652 104.968 52.917q42.5684 46.7295 42.5684 110.195q0 5.9043 -0.421875 12.2588zM144.953 443.83q5.55859 -15.2559 14.2637 -29.5293q14.4219 -23.3789 35.5449 -40.8281q-100.6 -33.0889 -118.662 -1.85059q-18.0781 31.3271 61.1045 101.932
q2.44238 -15.1582 7.74902 -29.7236zM299.005 631.152q27.9336 0 53.2021 -11.2568q-22.0889 -9.75977 -45.7607 -21.8594h-0.114258q-24.6172 -12.4854 -48.5762 -26.3291q-24.9443 -14.4062 -47.3408 -29.0684q-22.1523 -14.374 -41.8301 -28.7979
q5.20117 49.6836 42.5166 83.498q21.4727 19.458 47.3408 27.7188q19.085 6.09473 40.5625 6.09473zM365.354 613.149q24.3281 -14.3262 40.6338 -37.3184q9.56348 -13.4697 15.4971 -28.9131q8.35156 -21.834 8.63672 -45.376v-1.54199q0 -6.73926 -0.694336 -13.2617
q-4.99609 -49.8506 -42.3535 -83.8516q-37.3555 -34.001 -88.0684 -34.001q-28.3271 0 -53.8555 11.5645q-6.7998 3.02441 -13.1074 6.78613q-26.6885 15.8955 -43.4092 41.9443q-8.96582 13.8887 -14.1494 29.6084q-6.45898 19.4941 -6.62988 40.2852
q16.9336 13.1641 36.1611 26.3691q27.9443 19.2393 58.9844 37.1641q30.5039 17.625 61.4131 32.4229q21.4199 10.208 40.9414 18.1191zM521.875 628.956q18.0889 -31.2891 -61.1445 -102.009q-2.96777 17.9287 -9.86816 34.8506q-6.14648 15.2256 -15.3438 28.9912
q-13.6992 20.5498 -32.8076 36.1611q101.012 33.416 119.164 2.00586zM372.485 489.554q-14.124 22.8428 -15.6133 24.71q-13.5674 17.1143 -33.54 15.999q-6.32324 -0.376953 -13.3389 -2.96777q-5.96289 -2.16113 -12.0674 -5.5127q-2.26953 -1.24316 -5.78223 -3.50781
q-8.59766 -5.53027 -12.876 -6.5166q-2.14258 -0.5 -4.08594 -0.5q-8.32129 0 -17.0273 9.2998q-8.70508 9.2998 -9.38086 9.74414q-3.51562 -2.72461 -11.5195 -7.79395q-8.00391 -5.06836 -11.7656 -8.08887q8.97754 -16.8838 13.5693 -22.9385
q13.4736 -17.9668 33.502 -16.6943q5.27637 0.311523 11.3721 2.62305q4.44238 1.71094 15.8193 7.84277q11.376 6.13184 17.7607 7.5q17.2295 3.68945 30.6484 -19.0449q4.22363 2.5498 12.2139 7.9668q7.99023 5.41797 12.1113 7.87988z" />
</svg>
