<?xml version="1.0" standalone="no"?>
<!DOCTYPE svg PUBLIC "-//W3C//DTD SVG 1.1//EN" "http://www.w3.org/Graphics/SVG/1.1/DTD/svg11.dtd" >
<svg xmlns="http://www.w3.org/2000/svg" xmlns:xlink="http://www.w3.org/1999/xlink" version="1.1" viewBox="-10 0 1010 1000">
   <path fill="currentColor"
d="M877.125 330.188h0.125q4.75 8.8125 5.15625 21.6562q-0.415039 13.4453 -5.15625 21.6562l-169.875 294.188q-6.375 11.3125 -16.1758 15.2676q-17.0371 6.35742 -21.3242 6.35742h-7.375v-131.25q-0.515625 -6.25 -6.25 -6.25h-40.5q-6.25 0.204102 -6.25 6.25v231.25
h-219v-231.25q-0.515625 -6.25 -6.25 -6.25h-40.5q-6.25 0.204102 -6.25 6.25v131.25h-7.375q-10.6182 -0.408203 -21.3379 -6.3418q-10.7832 -5.96875 -16.1621 -15.2832l-169.875 -294.188q-4.75 -8.5 -5.15625 -21.6562q0.393555 -13.4033 5.15625 -21.6562
l169.812 -294.25q5.4375 -8.9375 16.1758 -15.2676q9.78125 -6.35742 21.3242 -6.35742h339.75q11.1875 -0.3125 21.3379 6.3418q11.083 6.48242 16.1621 15.2832z" />
</svg>
