<?xml version="1.0" standalone="no"?>
<!DOCTYPE svg PUBLIC "-//W3C//DTD SVG 1.1//EN" "http://www.w3.org/Graphics/SVG/1.1/DTD/svg11.dtd" >
<svg xmlns="http://www.w3.org/2000/svg" xmlns:xlink="http://www.w3.org/1999/xlink" version="1.1" viewBox="-10 0 1060 1000">
   <path fill="currentColor"
d="M759.537 623.975q-1.09473 16.7158 15.8613 15.6719q18.1953 -3.1748 19.666 -18.6963q1.5127 -12.54 9.41992 -4.69824q4.17383 4.13867 3.17871 9.7373q-1.86719 8.46484 3.41797 12.2236q5.28613 3.75781 12.3545 1.37793q7.07031 -2.38086 9.67578 -9.06543
q12.9971 -23.0078 -9.47656 -41.3242q-22.4727 -18.3164 -43.8301 -4.08887q-20.4141 9.0625 -20.2676 38.8623zM431.277 617.624q-134.967 -43.624 -212.055 -100.988q-12.9121 -9.63574 -37.3389 -33.3203q-24.5732 -25.3154 -38.8555 -33.6016
q-4.71777 -2.71387 -19.6123 8.60938q-12.1055 8.67676 -16.5811 10.4961q-2.52441 1.18066 -11.4512 5.70508q-9.07324 4.47559 -12.8955 6.30859q-4.17773 2.16699 -12.1641 4.80957q-8.01367 3.35742 -13.5391 3.60547q-5.47461 0.751953 -12.4482 0.140625
q-10.0264 -0.388672 -13.1807 -3.18945q-9.8457 -7.19922 -3.66406 -17.9814q4.81836 -9.21777 15.5566 -13.4639q30.2617 -27.7539 43.2197 -50.3975q0.0419922 -73.3564 -21.0762 -139.608q-0.881836 -2.74805 -2.40039 -10.377q-1.48145 -7.37109 -2.80566 -11.9033
q-0.675781 -4.46777 -0.0166016 -10.4424q1.34082 -6.02539 4.64746 -9.4834q8.69336 2.45801 15.6992 8.22852q6.99414 6.22949 15.0156 18.9062q7.97852 12.3232 10.2695 15.2441q5.70898 9.0791 15.9951 27.4785q10.7139 18.6006 17.1904 29.6309
q6.52344 10.9697 18.1797 24.959q11.3438 14.0107 23.958 23.3057q44.3857 36.7051 84.6602 32.8564q1.72559 -0.151367 2.63184 -16.3359q1.09375 -15.8154 10.0674 -13.9004q9.02637 2.08496 30.9736 24.2441q15.0527 15.8408 33.7305 22.9238
q9.32227 3.91699 17.5596 7.28711q5.7627 1.62988 24.5098 0.87207q14.2529 -0.242188 19.6348 -0.430664q3.61816 -0.811523 15.8389 -0.867188q12.7793 -0.944336 18.6826 -1.52441q6.09668 -1.41992 13.8018 -5.72266q10.2949 -6.69727 10.5127 -13.1191
q-0.217773 -2.57812 6.05469 -12.6602q3.72754 -5.91797 5.43555 -13.5449q1.29199 -7.37305 4.18457 -24.4678q3.10742 -16.9053 4.11621 -24.5039q0.991211 -7.40137 3.28711 -24.5879q1.7041 -17.8135 1.69531 -24.7188q0.00878906 -7.09473 -0.657227 -24.8984
q-0.333984 -10.1963 -1.27148 -27.7764q-1.0625 -18.4199 -1.07422 -22.8018q40.0117 1.38184 52.208 32.3379q21.8037 36.0439 50.7354 114.124q15.0684 32.9199 66.2383 46.2402q25.8301 6.67969 77.6846 17.6797q53.1455 11 92.958 22.002
q55.1875 14.998 75.8174 24.2178q94.3701 40.7803 118.765 82.9102q4.60547 7.87012 5.06348 16.5342q0.541992 9.33594 -1.29492 16.043q-3.16309 10.293 -6.95312 16.4277l-7.20996 12.8652q0 1 -11.9482 15.5283q-2.05176 2.47168 -15.7998 17.5498
q-13.252 14.9219 -19.0703 20.4873q-5.18164 5.43457 -17.1855 14.1992q-11.9961 9.23535 -22.5967 13.2158q-9.39941 3.01953 -31.0059 5.31543q-15.3936 1.7041 -34.5898 1.93555q-18.8037 -0.231445 -30.4717 -0.185547q-11.332 -0.0458984 -34.7891 -1.50586
q-23.543 -1.54004 -31.4043 -1.56934q-2.13867 0.0292969 -16.5342 -1.60938q-13.6045 -1.36133 -19.3955 -2.29199q-11.209 -2.06934 -14.8193 -4.29102q-15.3896 -7.77832 -16.1631 -8.50586q-1.22656 -0.272461 -4.24902 -1.6416q-2.97754 -1.63086 -5.65625 -2.42871
q-2.32129 -1.20215 -5.43262 -1.82812q-2.88867 -0.374023 -4.43652 0.0917969q-3.45215 1.53418 -1.80859 3.39648q19.3564 34.1377 78.7754 39.8447q24.5811 2.29297 28.8975 2.65527q20.6836 0.637695 31.2109 4.66797q-10.5273 6.96973 -23.3213 8.84668
q-13.2061 2.12305 -30.9238 2.75879q-18.2822 1.36426 -25.376 1.29492q-10.9062 0.0693359 -29.8096 0.744141q-19.0967 1.3252 -35.0127 0.698242q-16.084 -0.373047 -29.3125 -3.65918q-3.77148 -6.71387 -13.1143 -9.25488q-8.65723 -2.45898 -17.3535 -1.21484
q-8.30371 0.755859 -17.1025 -0.213867q-44.2012 -2.03027 -73.7754 17.1338q-72.4258 27.8359 -134.735 15.4609q-18.6904 -3.625 -31.2852 -5.94727q-12.4053 -2.67773 -26.7158 -11.8135q-16.6895 -9.86426 -21.9385 -22.292q-2.75098 -6.57227 0.866211 -9.2168
q3.38281 -2.35547 13.1885 -2.8291q9.19434 -0.526367 10.5088 -0.488281q90.6855 -16.0381 148.587 -61.2412q-3.90137 -5.79688 -10.8564 -9.62109q-7.04492 -4.17578 -17.7393 -7.23535q-10.3057 -2.94043 -14.3389 -5.31641zM487.495 132.221
q0.81543 16.7793 16.459 24.6172q15.3564 8.16211 29.7207 -0.412109q12.6357 -3.42578 14.3252 -17.9717q1.31055 -13.4541 -5.40723 -24.2275q-9.28223 -15.2266 -29.2988 -12.8203q-16.9834 2.59375 -24.4521 19.5879q-2.53125 6.00586 -1.34668 11.2266zM464.738 120.95
q-0.427734 -21.9502 18.8242 -36.6055q16.748 -13.3447 40.4404 -11.0166q18.3076 1.67188 29.5273 10.4121q15.7803 12.2598 20.0566 24.7119q3.72363 12.5479 1.40527 35.4424q-2.68164 20.1055 -16.9258 29.0605q-21.7559 15.0449 -66.1162 8.26465
q-15.6396 -8.21973 -22.5645 -24.6592q-5.0752 -11.5605 -4.64746 -35.6104z" />
</svg>
