<?xml version="1.0" standalone="no"?>
<!DOCTYPE svg PUBLIC "-//W3C//DTD SVG 1.1//EN" "http://www.w3.org/Graphics/SVG/1.1/DTD/svg11.dtd" >
<svg xmlns="http://www.w3.org/2000/svg" xmlns:xlink="http://www.w3.org/1999/xlink" version="1.1" viewBox="-10 0 812 1000">
   <path fill="currentColor"
d="M526.723 163.324l4.04688 1.99414q4.05664 -7.3418 10.3955 -15.9473t24.7568 -22.9463q18.418 -14.3418 40.0547 -20.1953q55.4844 -14.999 120.588 25.8799q64.8564 40.7705 65.1729 109.387q0.246094 38.6553 -19.0332 73.3818q-19.2783 34.7266 -45.4609 51.7051
q-39.1406 25.3721 -87.7041 25.3721q-40.5205 0 -87.0664 -17.6055l11.1494 -29.2588q88.1309 33.4062 146.607 -4.81152q19.9189 -12.8945 35.1602 -41.0078q15.2402 -28.1123 15.0342 -57.5156q-0.327148 -51.5674 -50.5342 -83.1631q-52.8965 -33.3184 -95.4258 -22.2383
q-34.624 9.27148 -55.0283 42.0195l4.24219 1.89258l-43.7305 93.8545l5.73633 3.25098l-57.291 149.898l-2.60352 35.8438l-16.2285 35.1943l-27.4375 -12.3828l-73.7764 158.371h0.274414h-0.289062l-10.6729 22.8066l-6.97754 -3.25l-10.1006 22.1582l-16.9434 11.7324
l-5.21289 -19.5527l10.8779 -24.1162l-6.18848 -2.60059l84.4639 -181.183l-25.4814 -12.3818l16.1621 -34.543l24.375 -26.0693l74.8184 -142.727l5.60645 2.60156zM269.954 666.523l-10.251 1.78223q-3.41797 -12.9834 -13.8779 -24.1328
q-9.33301 -11.46 -21.6816 -19.6045q-23.0352 -16.9561 -52.1045 -29.2754q-33.8643 -14.9229 -52.7432 -45.8291q-10.8281 -18.1865 -11.9199 -36.6611q-1.90332 -19.8467 8.56934 -39.625q9.33789 -16.5967 24.8232 -28.7676q12.1836 -10.3389 29.8594 -18.5518
l14.5254 -7.05078q5.22559 -2.30664 12.5566 -6.47266q15.6514 -8.97363 23.3799 -15.1914q24.8848 -18.8691 31.5254 -38.0156q4.00195 -10.0215 1.57129 -17.8252q-1.63379 -7.11035 -9.33594 -12.7295q-16.6455 -11.876 -44.0859 -7.55664
q-13.9688 1.61035 -26.5078 5.7793l-14.8525 4.00195q-3.61523 0.810547 -5.56543 1.60449q-6.25586 1.72754 -10.9082 2.61523q-38.6729 9.27246 -70.0518 2.97559q-20.9854 -4.88867 -36.0654 -16.2959q-15.6621 -12.4277 -23.7139 -33.1006
q-6.16504 -18.582 -4.45605 -38.5244q1.72559 -19.6152 10.4346 -35.7285q8.14355 -16.6904 21.7256 -29.0215q16.1299 -13.3711 26.7715 -20.0273q32.2842 -20.4482 63.1377 -22.2227q17.6016 -0.668945 33.7744 3.38086q15.377 4.28418 30.1182 14.874l-5.29004 9.0166
q-27.2383 -13.2285 -55.6758 -7.68652q-25.8164 4.99023 -50.4922 24.9453q-9.9707 7.34277 -21.6816 19.5127q-7.96289 8.09961 -13.1514 21.1357q-10.7314 26.4355 -1.28613 47.3477q8.36914 19.9863 33.4912 24.1709q21.6602 3.96973 52.5674 -4.85449l9.07031 -3.07715
q25.0479 -8.25781 40.2334 -11.8916t41.207 -1.75684q26.0205 1.87695 46.7568 15.4688q20.8672 14.7168 25.582 37.9316q5.31055 21.1182 -3.68848 43.0264q-7.56934 18.085 -20.3232 32.2422q-11.3701 12.5918 -26.6465 23.6768q-12.1738 8.81836 -29.7021 17.4004
q-11.0156 5.53027 -15.6182 7.26758l-13.8809 5.4043q-29.1152 13.7783 -40.0459 30.5693q-5.52246 9.41992 -5.64844 20.2578q-0.192383 9.9668 5.81445 22.7451q11.4844 23.2266 36.874 37.5146q33.1895 19.5117 52.6982 38.4443q13.2705 12.9766 21.3457 25.21
q4.58691 6.55859 7.85059 14.8457q4.42773 6.1582 4.98828 16.3291z" />
</svg>
