<?xml version="1.0" standalone="no"?>
<!DOCTYPE svg PUBLIC "-//W3C//DTD SVG 1.1//EN" "http://www.w3.org/Graphics/SVG/1.1/DTD/svg11.dtd" >
<svg xmlns="http://www.w3.org/2000/svg" xmlns:xlink="http://www.w3.org/1999/xlink" version="1.1" viewBox="-10 0 1020 1000">
   <path fill="currentColor"
d="M491.588 36.0469q21.7764 0.967773 21.7764 20.0791q0 9.09082 -10.2129 17.7148q-10.2139 8.62402 -51.0342 33.998q-22.7939 14.168 -26.2725 18.3018q-3.47852 4.13281 -1.49707 14.6973q4.07031 21.6963 9.28613 27.4336q5.21582 5.73828 25.5029 10.834
q23.0723 5.7959 31.0166 8.55469q3.9707 0.640625 4.31934 0.316406q1.25 -1.47949 9.74316 -29.8525q10.8008 -36.0859 30.5137 -50.1064q19.7139 -14.0215 64.126 -14.0176q27.6943 0.00292969 75.5947 5.35352q40.1504 4.48438 52.667 10.9287
q12.5156 6.44336 8.34082 20.4814q-2.87402 9.66504 -5.37891 13.667t-13.8779 6.87598q-11.3721 2.87402 -26.1318 3.2334q-14.7607 0.359375 -50.1387 0.359375h-77.8389l-4.41992 13.8232q-7.52051 23.5293 -7.63672 32.1104t7.05762 10.4463
q8.87793 2.31152 33.1846 15.1963l24.3291 12.8975l51.3125 -26.1963q49.6045 -25.3223 72.7402 -26.5166q23.1367 -1.19531 74.8232 18.8955q78.5391 30.5283 105.994 52.6025q27.4561 22.0732 11.7402 42.0527q-8.73145 11.0986 -19.3125 9.15039
q-10.5801 -1.94922 -50.3965 -21.9863q-69.5967 -35.0244 -100.021 -40.1895t-65.9395 12.0117q-27.8369 13.4609 -32.873 19.0732q-5.03613 5.61133 3.26758 13.918l8.1377 8.13867l26.9062 -11.9873q44.1387 -19.6719 67.9443 -14.3975q23.8066 5.27441 79.0479 46.9648
q97.0098 73.2129 130.307 111.502q33.2959 38.29 14.9434 55.5312q-13.0205 12.2324 -26.2451 6.19727t-52.4658 -42.1201q-40.3145 -37.0723 -65.1367 -58.1543t-45.5146 -36.0439q-20.6924 -14.9609 -35.2725 -18.9795q-14.5801 -4.01953 -27.0625 -3.01172
q-12.4834 1.00781 -28.2344 7.91113l-19.6934 8.63184l-0.631836 41.4697q-1.03613 67.6719 -52.7217 108.875t-135.54 41.2031h-19.083l-6.24121 27.4375q-14.1162 62.0674 1.64355 143.236q7.96387 41.0186 7.52539 54.2246q-0.439453 13.2061 -10.0635 22.126
q-9.24219 8.56445 -14.1934 9.0459q-4.9502 0.481445 -13.3984 -6.36133q-21.6992 -17.5771 -31.3447 -97.6982q-9.64453 -80.1201 3.51367 -133.498q6.48438 -26.3047 5.41309 -30.8086q-1.07227 -4.50293 -15.5645 -11.8408q-16.8076 -8.50977 -37.0566 -21.876
q-17.9004 -11.8154 -27.7168 -10.0078q-9.81738 1.80762 -41.252 22.7051q-32.0039 21.2754 -50.2334 48.8057q-18.2305 27.5303 -42.1465 90.7119q-9.63867 25.4639 -17.4629 34.6699q-7.8252 9.20605 -19.833 9.20605q-21.9707 0 -22.9775 -17.7139t18.2031 -66.2041
q27.0332 -68.2402 47.2793 -95.5146t64.6699 -55.2959q20.5195 -12.9434 26.1729 -20.1875q5.6543 -7.24414 -2.43066 -10.4434q-8.08398 -3.2002 -31.6104 -3.17871q-109.3 0.0986328 -207.792 84.4961q-40.0576 34.3252 -61.4785 11.3311
q-8.76172 -9.40625 -6.77051 -16.5752q1.99219 -7.16797 18.333 -25.0479q39.334 -43.0371 103.28 -72.8438q63.9473 -29.8076 128.896 -35.3799q23.6777 -2.03125 26.1748 -5.67383q2.49707 -3.6416 -5.0625 -25.127q-6.32324 -17.9697 -19.375 -22.2646
q-13.0518 -4.2959 -56.5127 -2.70508l-37.998 1.39648l-37.249 27.9932q-31.8281 23.9238 -42.5371 28.6797q-10.71 4.75684 -21.5947 -0.200195q-42.1709 -19.2148 27.4062 -70.8281q40.415 -29.9795 56.8906 -35.4766q16.4746 -5.49609 66.1904 -5.59082
l56.0635 -0.108398l3.99512 -15.7979q18.5732 -73.3135 108.54 -75.8877l-0.439453 -4.32715l-2.6543 -23.4268q-2.56152 -22.6406 2.67578 -35.0176q5.23633 -12.377 24.1064 -28.2891q52.7588 -44.4854 91.9785 -42.7412zM572.914 300.365
q-8.8877 -0.00195312 -15.1748 6.28516t-6.28516 15.1748q0.00292969 8.88281 6.28906 15.1611q6.28613 6.27734 15.1709 6.27539q8.88086 -0.00292969 15.1572 -6.2793q6.27734 -6.27637 6.2793 -15.1572q0.00195312 -8.88574 -6.27539 -15.1719
q-6.27832 -6.28613 -15.1611 -6.28809zM509.206 310.231q-8.88281 -0.00292969 -15.166 6.27832t-6.28516 15.166q-0.00292969 8.88672 6.28027 15.1709q6.2832 6.2832 15.1709 6.28027q8.88477 -0.00195312 15.166 -6.28516t6.27832 -15.166
q-0.00195312 -8.88086 -6.2832 -15.1611q-6.28027 -6.28125 -15.1611 -6.2832zM585.017 390.47q-5.99316 -0.0078125 -10.0273 3.76367q-19.0332 17.7881 -25.2314 20.2793q-18.4404 7.41113 -41.8555 -12.7578q-3.94531 -3.39941 -9.12988 -3.39941
q-6.41504 0 -10.6094 4.87207q-3.39844 3.94531 -3.39844 9.13086q0 6.41504 4.87207 10.6094q36.3174 31.2812 70.5654 17.5176q6.38574 -2.56641 12.6709 -6.82227t9.68652 -7.39746q3.40137 -3.14062 7.37598 -7.27246q3.97559 -4.13086 4.16797 -4.31055
q4.43457 -4.14746 4.43457 -10.2246q0 -5.52148 -3.77148 -9.55273q-3.9541 -4.23828 -9.75 -4.43555z" />
</svg>
